<?xml version="1.0" standalone="no"?>
<!DOCTYPE svg PUBLIC "-//W3C//DTD SVG 20010904//EN"
 "http://www.w3.org/TR/2001/REC-SVG-20010904/DTD/svg10.dtd">
<svg version="1.0" xmlns="http://www.w3.org/2000/svg"
 width="37.000000pt" height="55.000000pt" viewBox="0 0 37.000000 55.000000"
 preserveAspectRatio="xMidYMid meet">

<g transform="translate(0.000000,55.000000) scale(0.100000,-0.100000)"
fill="#000000" stroke="none">
<path d="M130 377 c-42 -15 -70 -58 -54 -84 6 -9 32 -24 59 -32 26 -9 53 -24
59 -33 16 -26 -7 -62 -53 -85 -45 -23 -44 -33 5 -33 102 0 179 91 102 120 -84
31 -98 40 -98 63 0 26 28 56 75 80 l30 16 -45 0 c-25 0 -61 -5 -80 -12z"/>
<path d="M207 324 c-10 -10 -9 -42 2 -48 18 -11 42 6 39 28 -3 21 -28 33 -41
20z"/>
<path d="M103 214 c-3 -8 2 -23 11 -32 15 -15 17 -15 33 0 13 14 14 20 3 32
-16 20 -39 20 -47 0z"/>
</g>
</svg>
